<svg width="310" height="230" viewBox="0 0 310 230" fill="none" xmlns="http://www.w3.org/2000/svg">
<path d="M18.182 11.818L15 0L11.818 11.818L0 15L11.818 18.182L15 30L18.182 18.182L30 15L18.182 11.818Z" fill="#050168"/>
<path d="M58.182 11.818L55 0L51.818 11.818L40 15L51.818 18.182L55 30L58.182 18.182L70 15L58.182 11.818Z" fill="#050168"/>
<path d="M95 0L98.182 11.818L110 15L98.182 18.182L95 30L91.818 18.182L80 15L91.818 11.818L95 0Z" fill="#050168"/>
<path d="M138.182 11.818L135 0L131.818 11.818L120 15L131.818 18.182L135 30L138.182 18.182L150 15L138.182 11.818Z" fill="#050168"/>
<path d="M175 0L178.182 11.818L190 15L178.182 18.182L175 30L171.818 18.182L160 15L171.818 11.818L175 0Z" fill="#050168"/>
<path d="M218.182 11.818L215 0L211.818 11.818L200 15L211.818 18.182L215 30L218.182 18.182L230 15L218.182 11.818Z" fill="#050168"/>
<path d="M255 0L258.182 11.818L270 15L258.182 18.182L255 30L251.818 18.182L240 15L251.818 11.818L255 0Z" fill="#050168"/>
<path d="M298.182 11.818L295 0L291.818 11.818L280 15L291.818 18.182L295 30L298.182 18.182L310 15L298.182 11.818Z" fill="#050168"/>
<path d="M15 40L18.182 51.818L30 55L18.182 58.182L15 70L11.818 58.182L0 55L11.818 51.818L15 40Z" fill="#050168"/>
<path d="M58.182 51.818L55 40L51.818 51.818L40 55L51.818 58.182L55 70L58.182 58.182L70 55L58.182 51.818Z" fill="#050168"/>
<path d="M95 40L98.182 51.818L110 55L98.182 58.182L95 70L91.818 58.182L80 55L91.818 51.818L95 40Z" fill="#050168"/>
<path d="M138.182 51.818L135 40L131.818 51.818L120 55L131.818 58.182L135 70L138.182 58.182L150 55L138.182 51.818Z" fill="#050168"/>
<path d="M175 40L178.182 51.818L190 55L178.182 58.182L175 70L171.818 58.182L160 55L171.818 51.818L175 40Z" fill="#050168"/>
<path d="M218.182 51.818L215 40L211.818 51.818L200 55L211.818 58.182L215 70L218.182 58.182L230 55L218.182 51.818Z" fill="#050168"/>
<path d="M255 40L258.182 51.818L270 55L258.182 58.182L255 70L251.818 58.182L240 55L251.818 51.818L255 40Z" fill="#050168"/>
<path d="M298.182 51.818L295 40L291.818 51.818L280 55L291.818 58.182L295 70L298.182 58.182L310 55L298.182 51.818Z" fill="#050168"/>
<path d="M15 80L18.182 91.818L30 95L18.182 98.182L15 110L11.818 98.182L0 95L11.818 91.818L15 80Z" fill="#050168"/>
<path d="M58.182 91.818L55 80L51.818 91.818L40 95L51.818 98.182L55 110L58.182 98.182L70 95L58.182 91.818Z" fill="#050168"/>
<path d="M95 80L98.182 91.818L110 95L98.182 98.182L95 110L91.818 98.182L80 95L91.818 91.818L95 80Z" fill="#050168"/>
<path d="M138.182 91.818L135 80L131.818 91.818L120 95L131.818 98.182L135 110L138.182 98.182L150 95L138.182 91.818Z" fill="#050168"/>
<path d="M175 80L178.182 91.818L190 95L178.182 98.182L175 110L171.818 98.182L160 95L171.818 91.818L175 80Z" fill="#050168"/>
<path d="M218.182 91.818L215 80L211.818 91.818L200 95L211.818 98.182L215 110L218.182 98.182L230 95L218.182 91.818Z" fill="#050168"/>
<path d="M255 80L258.182 91.818L270 95L258.182 98.182L255 110L251.818 98.182L240 95L251.818 91.818L255 80Z" fill="#050168"/>
<path d="M298.182 91.818L295 80L291.818 91.818L280 95L291.818 98.182L295 110L298.182 98.182L310 95L298.182 91.818Z" fill="#050168"/>
<path d="M15 120L18.182 131.818L30 135L18.182 138.182L15 150L11.818 138.182L0 135L11.818 131.818L15 120Z" fill="#050168"/>
<path d="M58.182 131.818L55 120L51.818 131.818L40 135L51.818 138.182L55 150L58.182 138.182L70 135L58.182 131.818Z" fill="#050168"/>
<path d="M95 120L98.182 131.818L110 135L98.182 138.182L95 150L91.818 138.182L80 135L91.818 131.818L95 120Z" fill="#050168"/>
<path d="M138.182 131.818L135 120L131.818 131.818L120 135L131.818 138.182L135 150L138.182 138.182L150 135L138.182 131.818Z" fill="#050168"/>
<path d="M175 120L178.182 131.818L190 135L178.182 138.182L175 150L171.818 138.182L160 135L171.818 131.818L175 120Z" fill="#050168"/>
<path d="M218.182 131.818L215 120L211.818 131.818L200 135L211.818 138.182L215 150L218.182 138.182L230 135L218.182 131.818Z" fill="#050168"/>
<path d="M255 120L258.182 131.818L270 135L258.182 138.182L255 150L251.818 138.182L240 135L251.818 131.818L255 120Z" fill="#050168"/>
<path d="M298.182 131.818L295 120L291.818 131.818L280 135L291.818 138.182L295 150L298.182 138.182L310 135L298.182 131.818Z" fill="#050168"/>
<path d="M15 160L18.182 171.818L30 175L18.182 178.182L15 190L11.818 178.182L0 175L11.818 171.818L15 160Z" fill="#050168"/>
<path d="M58.182 171.818L55 160L51.818 171.818L40 175L51.818 178.182L55 190L58.182 178.182L70 175L58.182 171.818Z" fill="#050168"/>
<path d="M95 160L98.182 171.818L110 175L98.182 178.182L95 190L91.818 178.182L80 175L91.818 171.818L95 160Z" fill="#050168"/>
<path d="M138.182 171.818L135 160L131.818 171.818L120 175L131.818 178.182L135 190L138.182 178.182L150 175L138.182 171.818Z" fill="#050168"/>
<path d="M175 160L178.182 171.818L190 175L178.182 178.182L175 190L171.818 178.182L160 175L171.818 171.818L175 160Z" fill="#050168"/>
<path d="M218.182 171.818L215 160L211.818 171.818L200 175L211.818 178.182L215 190L218.182 178.182L230 175L218.182 171.818Z" fill="#050168"/>
<path d="M255 160L258.182 171.818L270 175L258.182 178.182L255 190L251.818 178.182L240 175L251.818 171.818L255 160Z" fill="#050168"/>
<path d="M298.182 171.818L295 160L291.818 171.818L280 175L291.818 178.182L295 190L298.182 178.182L310 175L298.182 171.818Z" fill="#050168"/>
<path d="M15 200L18.182 211.818L30 215L18.182 218.182L15 230L11.818 218.182L0 215L11.818 211.818L15 200Z" fill="#050168"/>
<path d="M58.182 211.818L55 200L51.818 211.818L40 215L51.818 218.182L55 230L58.182 218.182L70 215L58.182 211.818Z" fill="#050168"/>
<path d="M95 200L98.182 211.818L110 215L98.182 218.182L95 230L91.818 218.182L80 215L91.818 211.818L95 200Z" fill="#050168"/>
<path d="M138.182 211.818L135 200L131.818 211.818L120 215L131.818 218.182L135 230L138.182 218.182L150 215L138.182 211.818Z" fill="#050168"/>
<path d="M175 200L178.182 211.818L190 215L178.182 218.182L175 230L171.818 218.182L160 215L171.818 211.818L175 200Z" fill="#050168"/>
<path d="M218.182 211.818L215 200L211.818 211.818L200 215L211.818 218.182L215 230L218.182 218.182L230 215L218.182 211.818Z" fill="#050168"/>
<path d="M255 200L258.182 211.818L270 215L258.182 218.182L255 230L251.818 218.182L240 215L251.818 211.818L255 200Z" fill="#050168"/>
<path d="M298.182 211.818L295 200L291.818 211.818L280 215L291.818 218.182L295 230L298.182 218.182L310 215L298.182 211.818Z" fill="#050168"/>
</svg>
